<?xml version="1.0" encoding="UTF-8" standalone="no"?>
<!DOCTYPE svg PUBLIC "-//W3C//DTD SVG 1.1//EN"
 "http://www.w3.org/Graphics/SVG/1.1/DTD/svg11.dtd">
<!-- Generated by graphviz version 2.47.3 (20210619.1520)
 -->
<!-- Title: dependencies Pages: 1 -->
<svg width="1642pt" height="247pt"
 viewBox="0.00 0.00 1642.00 246.80" xmlns="http://www.w3.org/2000/svg" xmlns:xlink="http://www.w3.org/1999/xlink">
<g id="graph0" class="graph" transform="scale(1 1) rotate(0) translate(4 242.8)">
<title>dependencies</title>
<polygon fill="white" stroke="transparent" points="-4,4 -4,-242.8 1638,-242.8 1638,4 -4,4"/>
<text text-anchor="middle" x="817" y="-8.2" font-family="sans-serif" font-size="14.00">dependencies</text>
<g id="clust1" class="cluster">
<title>cluster_AppModule</title>
<polygon fill="none" stroke="black" stroke-dasharray="1,5" points="8,-32.8 8,-230.8 1626,-230.8 1626,-32.8 8,-32.8"/>
</g>
<g id="clust13" class="cluster">
<title>cluster_AppModule_imports</title>
<polygon fill="none" stroke="black" points="1474,-40.8 1474,-92.8 1618,-92.8 1618,-40.8 1474,-40.8"/>
</g>
<g id="clust15" class="cluster">
<title>cluster_AppModule_bootstrap</title>
<polygon fill="none" stroke="black" points="799,-170.8 799,-222.8 923,-222.8 923,-170.8 799,-170.8"/>
</g>
<g id="clust2" class="cluster">
<title>cluster_AppModule_declarations</title>
<polygon fill="none" stroke="black" points="16,-40.8 16,-92.8 1466,-92.8 1466,-40.8 16,-40.8"/>
</g>
<!-- AppComponent -->
<g id="node1" class="node">
<title>AppComponent</title>
<polygon fill="#ffffb3" stroke="black" points="1457.94,-84.8 1352.06,-84.8 1352.06,-48.8 1457.94,-48.8 1457.94,-84.8"/>
<text text-anchor="middle" x="1405" y="-62.6" font-family="Times,serif" font-size="14.00">AppComponent</text>
</g>
<!-- AppModule -->
<g id="node11" class="node">
<title>AppModule</title>
<polygon fill="#8dd3c7" stroke="black" points="902.66,-149.8 899.66,-153.8 878.66,-153.8 875.66,-149.8 819.34,-149.8 819.34,-113.8 902.66,-113.8 902.66,-149.8"/>
<text text-anchor="middle" x="861" y="-127.6" font-family="Times,serif" font-size="14.00">AppModule</text>
</g>
<!-- AppComponent&#45;&gt;AppModule -->
<g id="edge1" class="edge">
<title>AppComponent&#45;&gt;AppModule</title>
<path fill="none" stroke="black" d="M1405,-85.08C1405,-106.12 1405,-137.8 1405,-137.8 1405,-137.8 912.78,-137.8 912.78,-137.8"/>
<polygon fill="black" stroke="black" points="912.78,-134.3 902.78,-137.8 912.78,-141.3 912.78,-134.3"/>
</g>
<!-- CadastrarComponent -->
<g id="node2" class="node">
<title>CadastrarComponent</title>
<polygon fill="#ffffb3" stroke="black" points="1334.47,-84.8 1199.53,-84.8 1199.53,-48.8 1334.47,-48.8 1334.47,-84.8"/>
<text text-anchor="middle" x="1267" y="-62.6" font-family="Times,serif" font-size="14.00">CadastrarComponent</text>
</g>
<!-- CadastrarComponent&#45;&gt;AppModule -->
<g id="edge2" class="edge">
<title>CadastrarComponent&#45;&gt;AppModule</title>
<path fill="none" stroke="black" d="M1267,-84.91C1267,-104.14 1267,-131.8 1267,-131.8 1267,-131.8 912.92,-131.8 912.92,-131.8"/>
<polygon fill="black" stroke="black" points="912.92,-128.3 902.92,-131.8 912.92,-135.3 912.92,-128.3"/>
</g>
<!-- InicioComponent -->
<g id="node3" class="node">
<title>InicioComponent</title>
<polygon fill="#ffffb3" stroke="black" points="1181.99,-84.8 1068.01,-84.8 1068.01,-48.8 1181.99,-48.8 1181.99,-84.8"/>
<text text-anchor="middle" x="1125" y="-62.6" font-family="Times,serif" font-size="14.00">InicioComponent</text>
</g>
<!-- InicioComponent&#45;&gt;AppModule -->
<g id="edge3" class="edge">
<title>InicioComponent&#45;&gt;AppModule</title>
<path fill="none" stroke="black" d="M1125,-84.82C1125,-102.17 1125,-125.8 1125,-125.8 1125,-125.8 912.83,-125.8 912.83,-125.8"/>
<polygon fill="black" stroke="black" points="912.83,-122.3 902.83,-125.8 912.83,-129.3 912.83,-122.3"/>
</g>
<!-- LogarComponent -->
<g id="node4" class="node">
<title>LogarComponent</title>
<polygon fill="#ffffb3" stroke="black" points="1050.26,-84.8 935.74,-84.8 935.74,-48.8 1050.26,-48.8 1050.26,-84.8"/>
<text text-anchor="middle" x="993" y="-62.6" font-family="Times,serif" font-size="14.00">LogarComponent</text>
</g>
<!-- LogarComponent&#45;&gt;AppModule -->
<g id="edge4" class="edge">
<title>LogarComponent&#45;&gt;AppModule</title>
<path fill="none" stroke="black" d="M993,-85.04C993,-100.37 993,-119.8 993,-119.8 993,-119.8 912.77,-119.8 912.77,-119.8"/>
<polygon fill="black" stroke="black" points="912.77,-116.3 902.77,-119.8 912.77,-123.3 912.77,-116.3"/>
</g>
<!-- MenuComponent -->
<g id="node5" class="node">
<title>MenuComponent</title>
<polygon fill="#ffffb3" stroke="black" points="917.99,-84.8 804.01,-84.8 804.01,-48.8 917.99,-48.8 917.99,-84.8"/>
<text text-anchor="middle" x="861" y="-62.6" font-family="Times,serif" font-size="14.00">MenuComponent</text>
</g>
<!-- MenuComponent&#45;&gt;AppModule -->
<g id="edge5" class="edge">
<title>MenuComponent&#45;&gt;AppModule</title>
<path fill="none" stroke="black" d="M861,-84.91C861,-84.91 861,-103.79 861,-103.79"/>
<polygon fill="black" stroke="black" points="857.5,-103.79 861,-113.79 864.5,-103.79 857.5,-103.79"/>
</g>
<!-- PostagemDeleteComponent -->
<g id="node6" class="node">
<title>PostagemDeleteComponent</title>
<polygon fill="#ffffb3" stroke="black" points="786.3,-84.8 613.7,-84.8 613.7,-48.8 786.3,-48.8 786.3,-84.8"/>
<text text-anchor="middle" x="700" y="-62.6" font-family="Times,serif" font-size="14.00">PostagemDeleteComponent</text>
</g>
<!-- PostagemDeleteComponent&#45;&gt;AppModule -->
<g id="edge6" class="edge">
<title>PostagemDeleteComponent&#45;&gt;AppModule</title>
<path fill="none" stroke="black" d="M700,-85.04C700,-100.37 700,-119.8 700,-119.8 700,-119.8 809.12,-119.8 809.12,-119.8"/>
<polygon fill="black" stroke="black" points="809.12,-123.3 819.12,-119.8 809.12,-116.3 809.12,-123.3"/>
</g>
<!-- RodapeComponent -->
<g id="node7" class="node">
<title>RodapeComponent</title>
<polygon fill="#ffffb3" stroke="black" points="596.1,-84.8 471.9,-84.8 471.9,-48.8 596.1,-48.8 596.1,-84.8"/>
<text text-anchor="middle" x="534" y="-62.6" font-family="Times,serif" font-size="14.00">RodapeComponent</text>
</g>
<!-- RodapeComponent&#45;&gt;AppModule -->
<g id="edge7" class="edge">
<title>RodapeComponent&#45;&gt;AppModule</title>
<path fill="none" stroke="black" d="M534,-84.82C534,-102.17 534,-125.8 534,-125.8 534,-125.8 809.25,-125.8 809.25,-125.8"/>
<polygon fill="black" stroke="black" points="809.25,-129.3 819.25,-125.8 809.25,-122.3 809.25,-129.3"/>
</g>
<!-- TemaComponent -->
<g id="node8" class="node">
<title>TemaComponent</title>
<polygon fill="#ffffb3" stroke="black" points="453.7,-84.8 340.3,-84.8 340.3,-48.8 453.7,-48.8 453.7,-84.8"/>
<text text-anchor="middle" x="397" y="-62.6" font-family="Times,serif" font-size="14.00">TemaComponent</text>
</g>
<!-- TemaComponent&#45;&gt;AppModule -->
<g id="edge8" class="edge">
<title>TemaComponent&#45;&gt;AppModule</title>
<path fill="none" stroke="black" d="M397,-84.91C397,-104.14 397,-131.8 397,-131.8 397,-131.8 809,-131.8 809,-131.8"/>
<polygon fill="black" stroke="black" points="809,-135.3 819,-131.8 809,-128.3 809,-135.3"/>
</g>
<!-- TemaDeleteComponent -->
<g id="node9" class="node">
<title>TemaDeleteComponent</title>
<polygon fill="#ffffb3" stroke="black" points="322.74,-84.8 173.26,-84.8 173.26,-48.8 322.74,-48.8 322.74,-84.8"/>
<text text-anchor="middle" x="248" y="-62.6" font-family="Times,serif" font-size="14.00">TemaDeleteComponent</text>
</g>
<!-- TemaDeleteComponent&#45;&gt;AppModule -->
<g id="edge9" class="edge">
<title>TemaDeleteComponent&#45;&gt;AppModule</title>
<path fill="none" stroke="black" d="M248,-85.08C248,-106.12 248,-137.8 248,-137.8 248,-137.8 808.87,-137.8 808.87,-137.8"/>
<polygon fill="black" stroke="black" points="808.87,-141.3 818.87,-137.8 808.87,-134.3 808.87,-141.3"/>
</g>
<!-- UserEditComponent -->
<g id="node10" class="node">
<title>UserEditComponent</title>
<polygon fill="#ffffb3" stroke="black" points="155.59,-84.8 24.41,-84.8 24.41,-48.8 155.59,-48.8 155.59,-84.8"/>
<text text-anchor="middle" x="90" y="-62.6" font-family="Times,serif" font-size="14.00">UserEditComponent</text>
</g>
<!-- UserEditComponent&#45;&gt;AppModule -->
<g id="edge10" class="edge">
<title>UserEditComponent&#45;&gt;AppModule</title>
<path fill="none" stroke="black" d="M90,-85.05C90,-107.82 90,-143.8 90,-143.8 90,-143.8 809.27,-143.8 809.27,-143.8"/>
<polygon fill="black" stroke="black" points="809.27,-147.3 819.27,-143.8 809.27,-140.3 809.27,-147.3"/>
</g>
<!-- AppComponent  -->
<g id="node13" class="node">
<title>AppComponent </title>
<polygon fill="#80b1d3" stroke="black" points="915.44,-214.8 806.56,-214.8 806.56,-178.8 915.44,-178.8 915.44,-214.8"/>
<text text-anchor="middle" x="861" y="-192.6" font-family="Times,serif" font-size="14.00">AppComponent </text>
</g>
<!-- AppModule&#45;&gt;AppComponent  -->
<g id="edge12" class="edge">
<title>AppModule&#45;&gt;AppComponent </title>
<path fill="none" stroke="black" stroke-dasharray="1,5" d="M861,-149.91C861,-149.91 861,-168.79 861,-168.79"/>
<polygon fill="black" stroke="black" points="857.5,-168.79 861,-178.79 864.5,-168.79 857.5,-168.79"/>
</g>
<!-- AppRoutingModule -->
<g id="node12" class="node">
<title>AppRoutingModule</title>
<polygon fill="#8dd3c7" stroke="black" points="1610.27,-84.8 1607.27,-88.8 1586.27,-88.8 1583.27,-84.8 1481.73,-84.8 1481.73,-48.8 1610.27,-48.8 1610.27,-84.8"/>
<text text-anchor="middle" x="1546" y="-62.6" font-family="Times,serif" font-size="14.00">AppRoutingModule</text>
</g>
<!-- AppRoutingModule&#45;&gt;AppModule -->
<g id="edge11" class="edge">
<title>AppRoutingModule&#45;&gt;AppModule</title>
<path fill="none" stroke="black" d="M1546,-85.05C1546,-107.82 1546,-143.8 1546,-143.8 1546,-143.8 912.82,-143.8 912.82,-143.8"/>
<polygon fill="black" stroke="black" points="912.82,-140.3 902.82,-143.8 912.82,-147.3 912.82,-140.3"/>
</g>
</g>
</svg>
